<svg width="20" height="20" viewBox="0 0 20 20" fill="none" xmlns="http://www.w3.org/2000/svg">
<path fill-rule="evenodd" clip-rule="evenodd" d="M9.75852 7.97593C9.44883 8.25386 9.19483 8.48926 9.02449 8.65961C8.96859 8.71551 8.90568 8.78041 8.83657 8.85334L14.1378 14.1655L15.0902 13.2131L9.75852 7.97593ZM5.97529 7.40432C4.42245 9.29157 3.84711 11.2714 3.6514 12.7297C3.53657 13.5854 4.48306 13.9027 5.03825 13.2415C6.00224 12.0935 7.25823 10.6113 8.16034 9.59582C8.16103 9.59504 8.16173 9.59426 8.16242 9.59347L13.43 14.8719C13.8204 15.2631 14.4541 15.2634 14.8449 14.8726L15.7973 13.9202C16.1903 13.5272 16.1874 12.8892 15.7909 12.4997L10.51 7.31236C11.4662 6.47845 12.6516 5.47516 13.606 4.67367C14.2672 4.11843 13.9498 3.17191 13.0941 3.28688C11.7949 3.46144 10.0818 3.93728 8.38888 5.13687L7.8719 4.59185C7.4847 4.18365 6.8371 4.17511 6.43927 4.57294L5.49871 5.5135C5.10819 5.90402 5.10818 6.53717 5.49869 6.9277L5.97529 7.40432ZM6.64145 6.65627C6.70297 6.59226 6.76561 6.52834 6.82941 6.46455C7.08377 6.21018 7.34003 5.97407 7.59683 5.75492L7.14638 5.28005L6.20581 6.22061L6.64145 6.65627Z" fill="#2AD9FF"/>
</svg>
