<svg width="20" height="21" viewBox="0 0 20 21" fill="none" xmlns="http://www.w3.org/2000/svg">
<path d="M18.0932 20.0833H0.958351C0.82374 20.0833 0.690641 20.055 0.567723 20.0001C0.444805 19.9452 0.334825 19.8651 0.244946 19.7648C0.155066 19.6646 0.0873035 19.5466 0.0460707 19.4185C0.00483794 19.2903 -0.00893996 19.155 0.00563402 19.0211C0.265906 16.6782 1.38098 14.5136 3.13746 12.9414C4.89395 11.3693 7.16848 10.5 9.52579 10.5C11.8831 10.5 14.1576 11.3693 15.9141 12.9414C17.6706 14.5136 18.7857 16.6782 19.046 19.0211C19.0605 19.155 19.0467 19.2903 19.0055 19.4185C18.9643 19.5466 18.8965 19.6646 18.8066 19.7648C18.7168 19.8651 18.6068 19.9452 18.4839 20.0001C18.3609 20.055 18.2278 20.0833 18.0932 20.0833Z" fill="#482AFF"/>
<path d="M9.52124 12.417C8.384 12.417 7.2723 12.0798 6.32671 11.4479C5.38113 10.8161 4.64414 9.9181 4.20894 8.86742C3.77373 7.81675 3.65986 6.66062 3.88173 5.54523C4.10359 4.42983 4.65123 3.40528 5.45538 2.60113C6.25953 1.79698 7.28408 1.24934 8.39947 1.02748C9.51486 0.805614 10.671 0.919484 11.7217 1.35469C12.7723 1.78989 13.6704 2.52688 14.3022 3.47247C14.934 4.41805 15.2712 5.52975 15.2712 6.66699C15.2696 8.19148 14.6632 9.65305 13.5853 10.731C12.5073 11.809 11.0457 12.4153 9.52124 12.417Z" fill="#482AFF"/>
</svg>
