<svg width="20" height="18" viewBox="0 0 20 18" fill="none" xmlns="http://www.w3.org/2000/svg">
<path d="M10.0916 11.5112L6.85828 14.3852C6.46681 14.7211 5.94399 14.9088 5.39995 14.9088C4.8559 14.9088 4.33308 14.7211 3.94161 14.3852C3.74962 14.2153 3.59727 14.0132 3.49332 13.7908C3.38937 13.5683 3.33586 13.3298 3.33586 13.0889C3.33586 12.8481 3.38937 12.6096 3.49332 12.3871C3.59727 12.1647 3.74962 11.9626 3.94161 11.7926L7.17494 8.91857C7.33186 8.77909 7.42002 8.58991 7.42002 8.39265C7.42002 8.19538 7.33186 8.0062 7.17494 7.86672C7.01802 7.72724 6.8052 7.64887 6.58328 7.64887C6.36136 7.64887 6.14853 7.72724 5.99161 7.86672L2.75828 10.7482C2.10691 11.3784 1.75463 12.208 1.77501 13.0636C1.79539 13.9192 2.18685 14.7347 2.86764 15.3399C3.54843 15.945 4.46591 16.293 5.42848 16.3111C6.39105 16.3292 7.32428 16.0161 8.03328 15.4371L11.2749 12.563C11.4319 12.4235 11.52 12.2344 11.52 12.0371C11.52 11.8398 11.4319 11.6506 11.2749 11.5112C11.118 11.3717 10.9052 11.2933 10.6833 11.2933C10.4614 11.2933 10.2485 11.3717 10.0916 11.5112ZM17.2416 2.56302C16.5406 1.94376 15.5924 1.59619 14.6041 1.59619C13.6158 1.59619 12.6676 1.94376 11.9666 2.56302L8.72495 5.43709C8.64725 5.50616 8.58561 5.58815 8.54356 5.67839C8.50151 5.76862 8.47987 5.86534 8.47987 5.96302C8.47987 6.06069 8.50151 6.15741 8.54356 6.24764C8.58561 6.33788 8.64725 6.41988 8.72495 6.48894C8.80264 6.55801 8.89489 6.61279 8.9964 6.65017C9.09792 6.68755 9.20673 6.70679 9.31661 6.70679C9.4265 6.70679 9.5353 6.68755 9.63682 6.65017C9.73834 6.61279 9.83058 6.55801 9.90828 6.48894L13.1416 3.61487C13.5331 3.27903 14.0559 3.09135 14.5999 3.09135C15.144 3.09135 15.6668 3.27903 16.0583 3.61487C16.2503 3.78486 16.4026 3.98687 16.5066 4.20933C16.6105 4.43178 16.664 4.67029 16.664 4.91116C16.664 5.15204 16.6105 5.39055 16.5066 5.613C16.4026 5.83545 16.2503 6.03747 16.0583 6.20746L12.8249 9.08153C12.7468 9.1504 12.6848 9.23232 12.6425 9.32259C12.6002 9.41286 12.5784 9.50967 12.5784 9.60746C12.5784 9.70525 12.6002 9.80207 12.6425 9.89233C12.6848 9.9826 12.7468 10.0645 12.8249 10.1334C12.9024 10.2028 12.9946 10.2579 13.0961 10.2955C13.1977 10.3331 13.3066 10.3525 13.4166 10.3525C13.5266 10.3525 13.6355 10.3331 13.7371 10.2955C13.8386 10.2579 13.9308 10.2028 14.0083 10.1334L17.2416 7.2519C17.9383 6.62878 18.3293 5.78596 18.3293 4.90746C18.3293 4.02896 17.9383 3.18614 17.2416 2.56302ZM7.35828 11.3482C7.43614 11.4169 7.52849 11.4712 7.63002 11.508C7.73155 11.5449 7.84027 11.5636 7.94994 11.563C8.05962 11.5636 8.16834 11.5449 8.26987 11.508C8.3714 11.4712 8.46375 11.4169 8.54161 11.3482L12.6416 7.70376C12.7985 7.56427 12.8867 7.37509 12.8867 7.17783C12.8867 6.98057 12.7985 6.79139 12.6416 6.6519C12.4847 6.51242 12.2719 6.43406 12.0499 6.43406C11.828 6.43406 11.6152 6.51242 11.4583 6.6519L7.35828 10.2963C7.28017 10.3652 7.21818 10.4471 7.17587 10.5374C7.13356 10.6277 7.11178 10.7245 7.11178 10.8223C7.11178 10.9201 7.13356 11.0169 7.17587 11.1071C7.21818 11.1974 7.28017 11.2793 7.35828 11.3482Z" fill="#2AD9FF"/>
</svg>
