<svg width="35" height="35" viewBox="0 0 35 35" fill="none" xmlns="http://www.w3.org/2000/svg">
<circle cx="17.5" cy="17.5" r="17.5" fill="#B844FF"/>
<circle cx="17.5" cy="17.5" r="17.2" stroke="white" stroke-opacity="0.5" stroke-width="0.6"/>
<rect x="9.5" y="9.5" width="17" height="15.875" rx="2.5" stroke="white"/>
<path d="M26.4375 15.1875C24.9375 15.1875 21.7125 15.1875 20.8125 15.1875C19.6875 15.1875 18.5625 16.3125 18.5625 18C18.5625 19.6875 19.6875 20.8125 20.8125 20.8125C21.7125 20.8125 24.9375 20.8125 26.4375 20.8125" stroke="white"/>
<path d="M23.6875 18C23.6875 18.6558 23.1558 19.1875 22.5 19.1875C21.8442 19.1875 21.3125 18.6558 21.3125 18C21.3125 17.3442 21.8442 16.8125 22.5 16.8125C23.1558 16.8125 23.6875 17.3442 23.6875 18Z" fill="#B844FF" stroke="white"/>
</svg>
