<svg width="35" height="35" viewBox="0 0 35 35" fill="none" xmlns="http://www.w3.org/2000/svg">
<circle cx="17.5" cy="17.5" r="17.5" fill="#5E3EDE"/>
<circle cx="17.5" cy="17.5" r="17.2" stroke="white" stroke-opacity="0.5" stroke-width="0.6"/>
<mask id="path-3-inside-1_1_435" fill="white">
<rect width="4.25161" height="4.25161" rx="0.4" transform="matrix(0.731055 0.682318 -0.731055 0.682318 17.5 17.7437)"/>
</mask>
<rect width="4.25161" height="4.25161" rx="0.4" transform="matrix(0.731055 0.682318 -0.731055 0.682318 17.5 17.7437)" stroke="white" stroke-width="2" mask="url(#path-3-inside-1_1_435)"/>
<path d="M13.5 15.5L11.121 12.7355C11.0429 12.6448 11 12.529 11 12.4094V8.5C11 8.22386 11.2239 8 11.5 8H15.3333M21.5 15.5L23.879 12.7355C23.9571 12.6448 24 12.529 24 12.4094V8.5C24 8.22386 23.7761 8 23.5 8H19.6667M15.3333 8V14.5M15.3333 8H19.6667M19.6667 8V14.5" stroke="white"/>
<path d="M24.5 21C24.5 24.5579 21.399 27.5 17.5 27.5C13.601 27.5 10.5 24.5579 10.5 21C10.5 17.4421 13.601 14.5 17.5 14.5C21.399 14.5 24.5 17.4421 24.5 21Z" stroke="white"/>
<path d="M24.5 21C24.5 24.5579 21.399 27.5 17.5 27.5C13.601 27.5 10.5 24.5579 10.5 21C10.5 17.4421 13.601 14.5 17.5 14.5C21.399 14.5 24.5 17.4421 24.5 21Z" stroke="white"/>
<path d="M24.5 21C24.5 24.5579 21.399 27.5 17.5 27.5C13.601 27.5 10.5 24.5579 10.5 21C10.5 17.4421 13.601 14.5 17.5 14.5C21.399 14.5 24.5 17.4421 24.5 21Z" stroke="white"/>
</svg>
