<svg width="20" height="20" viewBox="0 0 20 20" fill="none" xmlns="http://www.w3.org/2000/svg">
<path id="Subtract" fill-rule="evenodd" clip-rule="evenodd" d="M10 0C4.47715 0 0 4.47715 0 10C0 15.5228 4.47715 20 10 20C15.5228 20 20 15.5228 20 10C20 4.47715 15.5228 0 10 0ZM9.29294 5.35355C8.79086 5.35355 8.38384 5.76056 8.38384 6.26264V7.47476H6.56566V6.26264C6.56566 4.75641 7.78671 3.53537 9.29294 3.53537H10.7071C12.2133 3.53537 13.4344 4.75641 13.4344 6.26264V7.73175C13.4344 8.45506 13.147 9.14876 12.6356 9.66022L11.1754 11.1204C11.0049 11.2909 10.9091 11.5221 10.9091 11.7632V13.5354H9.09092V11.7632C9.09092 11.0399 9.37825 10.3462 9.88972 9.83476L11.3499 8.37457C11.5204 8.20408 11.6162 7.97285 11.6162 7.73175V6.26264C11.6162 5.76056 11.2092 5.35355 10.7071 5.35355H9.29294ZM9.09091 14.5455V16.5657H10.9091V14.5455H9.09091Z" fill="#2AD9FF" fill-opacity="0.6"/>
</svg>
