<svg width="30" height="30" viewBox="0 0 30 30" fill="none" xmlns="http://www.w3.org/2000/svg">
<path d="M30 15C30 23.2843 23.2843 30 15 30C6.71573 30 0 23.2843 0 15C0 6.71573 6.71573 0 15 0C23.2843 0 30 6.71573 30 15ZM2.25 15C2.25 22.0416 7.95837 27.75 15 27.75C22.0416 27.75 27.75 22.0416 27.75 15C27.75 7.95837 22.0416 2.25 15 2.25C7.95837 2.25 2.25 7.95837 2.25 15Z" fill="url(#paint0_linear_646_704)" fill-opacity="0.8"/>
<path d="M15 9L15 16" stroke="#E08585" stroke-opacity="0.8" stroke-width="2.6" stroke-linecap="round"/>
<path d="M16.5 20.5C16.5 21.3284 15.8284 22 15 22C14.1716 22 13.5 21.3284 13.5 20.5C13.5 19.6716 14.1716 19 15 19C15.8284 19 16.5 19.6716 16.5 20.5Z" fill="url(#paint1_linear_646_704)" fill-opacity="0.8"/>
<defs>
<linearGradient id="paint0_linear_646_704" x1="15" y1="0.5" x2="12.5" y2="51" gradientUnits="userSpaceOnUse">
<stop stop-color="#E08585"/>
<stop offset="1" stop-color="#E08585" stop-opacity="0"/>
</linearGradient>
<linearGradient id="paint1_linear_646_704" x1="15" y1="19.05" x2="14.75" y2="24.1" gradientUnits="userSpaceOnUse">
<stop stop-color="#E08585"/>
<stop offset="1" stop-color="#E08585" stop-opacity="0"/>
</linearGradient>
</defs>
</svg>
