<svg width="35" height="35" viewBox="0 0 35 35" fill="none" xmlns="http://www.w3.org/2000/svg">
<circle cx="17.5" cy="17.5" r="17.5" fill="#5E3EDE"/>
<circle cx="17.5" cy="17.5" r="17.2" stroke="white" stroke-opacity="0.5" stroke-width="0.6"/>
<path d="M25.75 12.6392C25.75 13.7175 24.9574 14.7989 23.4444 15.6394C21.9483 16.4706 19.8476 17.0003 17.5 17.0003C15.1524 17.0003 13.0517 16.4706 11.5556 15.6394C10.0426 14.7989 9.25 13.7175 9.25 12.6392C9.25 11.5609 10.0426 10.4795 11.5556 9.63894C13.0517 8.8078 15.1524 8.27808 17.5 8.27808C19.8476 8.27808 21.9483 8.8078 23.4444 9.63894C24.9574 10.4795 25.75 11.5609 25.75 12.6392Z" stroke="white"/>
<path d="M25.5 14.0999C25.9821 14.7427 26.25 15.4545 26.25 16.2034C26.25 19.0671 22.3325 21.3886 17.5 21.3886C12.6675 21.3886 8.75 19.0671 8.75 16.2034C8.75 15.4545 9.0179 14.7427 9.5 14.0999" stroke="white"/>
<path d="M9.92059 18.4719C9.1761 19.2346 8.75 20.1201 8.75 21.0645C8.75 23.9282 12.6675 26.2497 17.5 26.2497C22.3325 26.2497 26.25 23.9282 26.25 21.0645C26.25 20.1201 25.8239 19.2346 25.0794 18.4719" stroke="white"/>
</svg>
