<svg width="27" height="22" viewBox="0 0 27 22" fill="none" xmlns="http://www.w3.org/2000/svg">
<path d="M8.67858 21.5C5.77895 21.5027 2.93978 20.6766 0.5 19.12C0.92262 19.1688 1.34775 19.1929 1.7732 19.1923C4.17549 19.1961 6.50931 18.3975 8.39959 16.9248C7.28611 16.9037 6.20709 16.5375 5.31338 15.8775C4.41968 15.2174 3.75595 14.2964 3.415 13.2432C3.7454 13.3067 4.08114 13.3388 4.41767 13.339C4.89284 13.339 5.36591 13.2763 5.82445 13.1525C4.61671 12.9102 3.53054 12.2604 2.75021 11.3132C1.96988 10.366 1.54345 9.17984 1.54325 7.95593C1.54325 7.93241 1.54325 7.91058 1.54325 7.88874C2.28382 8.29824 3.11229 8.52572 3.95945 8.55217C2.82977 7.80257 2.03033 6.6533 1.72403 5.33856C1.41772 4.02381 1.62759 2.64252 2.31089 1.47614C3.64942 3.11356 5.31955 4.45316 7.21294 5.40801C9.10632 6.36286 11.1806 6.91163 13.3013 7.01872C13.0313 5.88074 13.1476 4.68602 13.6319 3.62044C14.1162 2.55486 14.9416 1.67816 15.9794 1.12676C17.0173 0.575351 18.2096 0.380149 19.3707 0.571521C20.5318 0.762892 21.5967 1.33011 22.3997 2.18492C23.5922 1.94944 24.7357 1.5144 25.7814 0.898365C25.383 2.12574 24.5497 3.16777 23.4362 3.8309C24.4938 3.70392 25.5265 3.42087 26.5 2.99111C25.7834 4.05571 24.8816 4.98502 23.8369 5.73553C23.8488 5.96227 23.8538 6.1907 23.8538 6.4208C23.8538 13.4229 18.4854 21.5 8.67181 21.5" fill="#2AD9FF"/>
</svg>
