<svg width="40" height="40" viewBox="0 0 40 40" fill="none" xmlns="http://www.w3.org/2000/svg">
<path d="M3.33337 14.6667C3.33337 11.8664 3.33337 10.4663 3.87834 9.39673C4.35771 8.45592 5.12261 7.69102 6.06342 7.21165C7.13298 6.66669 8.53311 6.66669 11.3334 6.66669H28.6667C31.467 6.66669 32.8671 6.66669 33.9367 7.21165C34.8775 7.69102 35.6424 8.45592 36.1217 9.39673C36.6667 10.4663 36.6667 11.8664 36.6667 14.6667V25.3334C36.6667 28.1336 36.6667 29.5337 36.1217 30.6033C35.6424 31.5441 34.8775 32.309 33.9367 32.7884C32.8671 33.3334 31.467 33.3334 28.6667 33.3334H11.3334C8.53311 33.3334 7.13298 33.3334 6.06342 32.7884C5.12261 32.309 4.35771 31.5441 3.87834 30.6033C3.33337 29.5337 3.33337 28.1336 3.33337 25.3334V14.6667Z" fill="#FF2FC4"/>
<path d="M10 25C10 24.0795 10.7462 23.3333 11.6667 23.3333H18.3333C19.2538 23.3333 20 24.0795 20 25C20 25.9205 19.2538 26.6666 18.3333 26.6666H11.6667C10.7462 26.6666 10 25.9205 10 25Z" fill="#231742"/>
<path d="M3.33337 13.3333H36.6667V16.6666H3.33337V13.3333Z" fill="#231742"/>
</svg>
